<svg width="147" height="83" viewBox="0 0 147 83" fill="none" xmlns="http://www.w3.org/2000/svg">
	<path d="M146.224 77.8769C145.644 79.4125 144.657 80.7513 143.515 81.5518C142.452 82.2968 142.333 82.3147 137.82 82.4095C132.735 82.5162 130.059 82.2056 127.002 81.1538C121.024 79.0962 115.988 75.4911 111.249 69.8747C109.205 67.4521 106.329 63.3462 106.471 63.0543C106.519 62.9532 106.998 62.0128 107.534 60.9643C109.303 57.4986 111.457 51.9948 112.624 47.9545C112.75 47.5196 113.01 47.8939 113.904 49.7958C115.32 52.8057 116.833 55.3988 117.071 55.2234C117.172 55.1491 117.253 50.373 117.253 44.6094V34.1301L118.609 31.7351C119.355 30.4178 121.031 28.074 122.333 26.5268L124.701 23.7135L124.819 43.9696L124.938 64.2256L126.474 65.1634C127.852 66.0042 130.678 67.2379 131.226 67.2379C131.349 67.2379 131.438 56.4906 131.438 41.597C131.438 27.4945 131.351 15.956 131.244 15.956C130.704 15.956 128.301 16.9714 126.926 17.7812C121.111 21.2049 116.336 27.3269 112.874 35.7967C112.172 37.5147 110.9 41.4561 110.048 44.5556C107.153 55.0838 103.386 62.7993 97.924 69.3831C92.0733 76.4359 85.5692 80.6389 78.3077 82.0583C75.4932 82.6083 69.7982 82.4626 67.162 81.773C59.1506 79.6778 51.9118 74.0801 46.0172 65.4222C45.2845 64.3459 44.6851 63.3491 44.6851 63.2072C44.6851 63.0651 45.205 61.9168 45.8406 60.6556C47.676 57.0129 49.232 53.0396 50.8127 47.9577C50.9487 47.5202 51.1774 47.8481 51.9917 49.6482C52.5473 50.8766 53.4976 52.7057 54.1031 53.713L55.2042 55.5446L55.3223 44.8366L55.4406 34.1286L56.5043 32.2414C58.2935 29.0671 62.1806 24.1272 62.8894 24.1272C63.0411 24.1272 63.123 31.1733 63.123 44.2294V64.3314L64.9557 65.3566C67.0643 66.5363 69.1747 67.3408 69.5104 67.0932C69.838 66.8517 69.8263 16.3333 69.4977 16.0918C69.1222 15.8148 66.2733 16.9996 64.3045 18.2519C59.1307 21.5431 54.5344 27.5225 51.3413 35.1163C50.4615 37.2085 49.3968 40.2516 48.9751 41.8787C47.6206 47.1055 46.5661 50.3874 45.0366 54.1357C39.1061 68.6696 29.3758 78.6396 18.068 81.7686C16.9319 82.0831 14.7465 82.265 10.8687 82.3682C5.47539 82.5118 5.26173 82.4965 4.06372 81.8822C1.90553 80.7755 0.244354 77.8377 0.244354 75.1275C0.244354 71.2001 3.22471 67.8015 6.66888 67.8015H7.8087V41.597V15.3925H6.66888C3.22471 15.3925 0.244354 11.9939 0.244354 8.06643C0.244354 5.3563 1.90553 2.41847 4.06372 1.31186C5.26173 0.69747 5.47539 0.682203 10.8687 0.825732C16.833 0.984464 17.9527 1.1793 21.8497 2.7355C26.0796 4.42473 30.8075 7.89087 34.6748 12.1378C36.5035 14.1462 40.0939 18.9823 40.3525 19.7856C40.4186 19.9914 39.9284 21.2345 39.2628 22.5479C37.7865 25.4613 35.7251 30.5418 34.8121 33.5168L34.1357 35.7214L32.8828 33.0942C32.1939 31.6493 31.2434 29.8362 30.7704 29.065L29.9106 27.6629L29.7924 38.3634L29.6742 49.0639L28.5007 51.1771C27.8554 52.3395 26.1534 54.6852 24.7187 56.3899L22.1099 59.4893L21.9917 39.202L21.8734 18.9146L20.5894 18.0944C19.2807 17.2585 16.3057 15.956 15.7049 15.956C15.4224 15.956 15.373 19.7702 15.373 41.597C15.373 62.7911 15.4273 67.2379 15.6885 67.2379C16.2888 67.2379 19.0234 66.0552 20.5636 65.1293C25.6939 62.0453 30.6464 55.6295 33.8931 47.8615C35.0579 45.0747 35.6547 43.1953 37.224 37.3705C40.3688 25.6986 46.7006 14.8913 54.1297 8.51522C60.0478 3.43612 65.543 1.10193 72.2235 0.829982C80.2561 0.502833 87.1358 3.22623 93.7339 9.34469C95.8887 11.342 99.4073 15.522 101.169 18.1762L102.363 19.9738L101.913 20.8529C99.4208 25.7209 97.4724 30.5591 96.1159 35.2474C95.9864 35.6957 95.7738 35.4006 94.9982 33.6977C93.8398 31.1521 92.1891 28.2976 91.7846 28.1401C91.5511 28.0495 91.4887 30.255 91.4896 38.5445V49.0639L90.1394 51.4589C89.3964 52.7762 87.7204 55.1219 86.4154 56.6716L84.0416 59.4893L83.9231 39.252L83.8054 19.0148L82.5267 18.1728C81.3321 17.386 78.1267 15.956 77.5584 15.956C77.3792 15.956 77.305 23.5177 77.305 41.597C77.305 55.6996 77.3919 67.2379 77.4977 67.2379C77.914 67.2379 80.314 66.2991 81.3231 65.7417C81.9086 65.4186 83.0787 64.6569 83.9231 64.0491C85.267 63.0824 86.0308 62.3861 88.6127 59.7711C89.4842 58.8884 92.5014 54.3491 93.7294 52.0713C95.5195 48.7537 97.0344 44.6614 98.6733 38.717C100.366 32.5752 102.214 27.6986 104.472 23.4228C109.242 14.3855 116.233 6.9494 123.033 3.68135C128.064 1.26279 131.214 0.645788 137.819 0.784521C142.332 0.879362 142.452 0.897169 143.514 1.64233C145.605 3.10703 146.665 5.47065 146.519 8.3368C146.313 12.3545 144.161 14.9389 140.679 15.3494L139.119 15.5334V41.597V67.6606L140.679 67.8445C143.126 68.133 145.043 69.6165 145.998 71.9615C146.565 73.3521 146.691 76.6428 146.224 77.8769Z" fill="url(#paint0_linear_1_3)"/>
	<defs>
		<linearGradient id="paint0_linear_1_3" x1="0.244354" y1="41.597" x2="146.532" y2="41.597" gradientUnits="userSpaceOnUse">
			<stop stop-color="#FFF500">
				<animate attributeName="stop-color" values="#FFF500;#FF0099;#FFF500" dur="10s" repeatCount="indefinite" />
			</stop>
			<stop offset="1" stop-color="#FF0099">
				<animate attributeName="stop-color" values="#FF0099;#FFF500;#FF0099" dur="10s" repeatCount="indefinite" />
			</stop>
		</linearGradient>
	</defs>
</svg>
