<svg width="221" height="183" viewBox="0 0 221 183" fill="none" xmlns="http://www.w3.org/2000/svg">

	<style>
		.title path { fill: #1E1E1E; color-scheme: light dark; }
		@media (prefers-color-scheme:dark) {
		.title path { fill: #EEEEEE; }
		}
	</style>

	<g class="logo">
		<path d="M190.308 85.224C189.667 86.9208 188.576 88.4002 187.314 89.2847C186.139 90.108 186.008 90.1277 181.021 90.2325C175.402 90.3504 172.445 90.0072 169.067 88.8449C162.461 86.5713 156.897 82.5877 151.66 76.3815C149.401 73.7046 146.223 69.1675 146.38 68.845C146.434 68.7333 146.963 67.6941 147.555 66.5356C149.51 62.706 151.89 56.6242 153.18 52.1597C153.319 51.6791 153.606 52.0927 154.594 54.1944C156.159 57.5203 157.831 60.3857 158.094 60.1918C158.205 60.1098 158.295 54.8322 158.295 48.4634L158.295 36.8837L159.793 34.2373C160.617 32.7817 162.469 30.1918 163.908 28.4821L166.525 25.3734L166.655 47.7564L166.786 70.1393L168.484 71.1756C170.006 72.1046 173.129 73.4679 173.735 73.4679C173.871 73.4679 173.969 61.5921 173.969 45.1347C173.969 29.5514 173.873 16.8014 173.755 16.8014C173.158 16.8014 170.503 17.9234 168.983 18.8182C162.558 22.6014 157.281 29.3662 153.456 38.7253C152.68 40.6237 151.274 44.979 150.333 48.4039C147.134 60.0376 142.971 68.5632 136.936 75.8383C130.471 83.6317 123.284 88.276 115.26 89.8444C112.15 90.4522 105.857 90.2912 102.944 89.5292C94.0914 87.214 86.0925 81.0285 79.579 71.4615C78.7694 70.2722 78.107 69.1708 78.107 69.0139C78.107 68.8569 78.6815 67.5881 79.3838 66.1944C81.412 62.1692 83.1313 57.7787 84.878 52.1632C85.0283 51.6798 85.281 52.0422 86.1808 54.0313C86.7948 55.3886 87.8448 57.4098 88.5139 58.5229L89.7306 60.5468L89.8611 48.7144L89.9918 36.8821L91.1672 34.7967C93.1443 31.2891 97.4396 25.8306 98.2228 25.8306C98.3904 25.8306 98.4809 33.6165 98.4809 48.0435L98.4809 70.2562L100.506 71.389C102.836 72.6926 105.168 73.5816 105.539 73.308C105.901 73.0411 105.888 17.2183 105.525 16.9514C105.11 16.6453 101.962 17.9545 99.7865 19.3383C94.0694 22.9751 88.9905 29.5824 85.4621 37.9735C84.49 40.2854 83.3134 43.648 82.8475 45.446C81.3508 51.2216 80.1855 54.8481 78.4954 58.9899C71.9422 75.0499 61.1902 86.0668 48.6951 89.5243C47.4397 89.8718 45.0249 90.0728 40.7399 90.1869C34.7803 90.3455 34.5442 90.3286 33.2204 89.6498C30.8356 88.4269 29 85.1807 29 82.1859C29 77.8461 32.2933 74.0907 36.0991 74.0907L37.3586 74.0907L37.3586 45.1347L37.3586 16.1787L36.0991 16.1787C32.2933 16.1787 29 12.4232 29 8.0834C29 5.0887 30.8356 1.8424 33.2204 0.619598C34.5442 -0.0593019 34.7803 -0.0761723 40.7399 0.0824275C47.3305 0.257827 48.5677 0.473118 52.8739 2.19272C57.5479 4.05932 62.7723 7.8894 67.0456 12.5823C69.0664 14.8015 73.0337 20.1454 73.3195 21.0331C73.3925 21.2605 72.8509 22.6341 72.1154 24.0854C70.4841 27.3047 68.2062 32.9187 67.1974 36.2061L66.4499 38.6421L65.0655 35.7391C64.3042 34.1425 63.2539 32.139 62.7313 31.2868L61.7812 29.7375L61.6506 41.5615L61.52 53.3856L60.2233 55.7207C59.5102 57.0051 57.6295 59.5971 56.0441 61.4808L53.1614 64.9057L53.0308 42.4882L52.9001 20.0706L51.4813 19.1643C50.0352 18.2406 46.7478 16.8014 46.0839 16.8014C45.7717 16.8014 45.7172 21.0161 45.7172 45.1347C45.7172 68.5542 45.7772 73.4679 46.0658 73.4679C46.7291 73.4679 49.7508 72.161 51.4528 71.1379C57.1217 67.7301 62.5943 60.6406 66.1819 52.0569C67.469 48.9775 68.1284 46.9008 69.8625 40.4644C73.3375 27.567 80.3341 15.6249 88.5433 8.57931C95.0828 2.96691 101.155 0.387625 108.537 0.0871242C117.413 -0.274376 125.015 2.73498 132.306 9.49588C134.687 11.7029 138.575 16.3218 140.522 19.2547L141.841 21.241L141.344 22.2125C138.59 27.5916 136.437 32.9378 134.938 38.1184C134.795 38.6137 134.56 38.2877 133.703 36.4059C132.423 33.5931 130.599 30.4388 130.152 30.2648C129.894 30.1647 129.825 32.6018 129.826 41.7617L129.826 53.3856L128.334 56.0321C127.513 57.4877 125.661 60.0797 124.219 61.7921L121.596 64.9057L121.465 42.5435L121.335 20.1813L119.922 19.2509C118.602 18.3815 115.06 16.8014 114.432 16.8014C114.234 16.8014 114.152 25.1571 114.152 45.1347C114.152 60.718 114.248 73.4679 114.365 73.4679C114.825 73.4679 117.477 72.4305 118.592 71.8146C119.239 71.4575 120.532 70.6159 121.465 69.9442C122.95 68.8761 123.794 68.1066 126.647 65.2171C127.61 64.2417 130.944 59.2257 132.301 56.7088C134.279 53.0428 135.953 48.5208 137.764 41.9523C139.634 35.1656 141.677 29.777 144.171 25.0522C149.442 15.066 157.168 6.84908 164.681 3.23788C170.241 0.565378 173.721 -0.116411 181.02 0.0368891C186.007 0.141689 186.139 0.161365 187.313 0.984765C189.623 2.60326 190.795 5.21506 190.633 8.38216C190.406 12.8217 188.028 15.6775 184.18 16.1311L182.457 16.3344L182.457 45.1347L182.457 73.935L184.18 74.1382C186.884 74.457 189.002 76.0962 190.058 78.6874C190.684 80.2241 190.824 83.8603 190.308 85.224Z" fill="url(#paint0_linear_0_1)"/>
	</g>
	<g class="title">
		<path fill="#1E1E1E" d="M17.08 177.2C15.6667 177.2 14.4333 176.907 13.38 176.32C12.3267 175.733 11.5133 174.9 10.94 173.82C10.3667 172.727 10.08 171.46 10.08 170.02C10.08 168.58 10.3667 167.313 10.94 166.22C11.5133 165.127 12.3267 164.287 13.38 163.7C14.4467 163.1 15.68 162.8 17.08 162.8C18.2133 162.8 19.2667 162.993 20.24 163.38C21.2267 163.767 21.98 164.3 22.5 164.98C22.62 165.113 22.68 165.273 22.68 165.46C22.68 165.673 22.5867 165.84 22.4 165.96C22.28 166.04 22.1467 166.08 22 166.08C21.88 166.08 21.76 166.053 21.64 166C21.52 165.933 21.42 165.853 21.34 165.76C20.9267 165.24 20.3533 164.833 19.62 164.54C18.8867 164.233 18.04 164.08 17.08 164.08C15.96 164.08 14.9867 164.32 14.16 164.8C13.3333 165.28 12.7 165.967 12.26 166.86C11.82 167.753 11.6 168.807 11.6 170.02C11.6 171.86 12.0867 173.307 13.06 174.36C14.0333 175.4 15.3733 175.92 17.08 175.92C17.9733 175.92 18.7667 175.78 19.46 175.5C20.1533 175.207 20.6933 174.807 21.08 174.3C21.48 173.78 21.68 173.193 21.68 172.54V171.86C21.68 171.5 21.6067 171.24 21.46 171.08C21.3267 170.92 21.0667 170.84 20.68 170.84H17.64C17.1333 170.84 16.88 170.64 16.88 170.24C16.88 169.813 17.1333 169.6 17.64 169.6H20.94C21.7 169.6 22.2667 169.767 22.64 170.1C23.0133 170.433 23.2 170.947 23.2 171.64V172.4C23.2 173.293 22.9333 174.107 22.4 174.84C21.8667 175.573 21.1333 176.153 20.2 176.58C19.2667 176.993 18.2267 177.2 17.08 177.2Z"/>
		<path fill="#1E1E1E" d="M30.1456 177.2C28.9856 177.2 27.9923 176.967 27.1656 176.5C26.339 176.033 25.7123 175.413 25.2856 174.64C24.8723 173.853 24.6656 173.007 24.6656 172.1C24.6656 171.193 24.8723 170.353 25.2856 169.58C25.7123 168.793 26.339 168.167 27.1656 167.7C27.9923 167.233 28.9856 167 30.1456 167C31.3056 167 32.2923 167.233 33.1056 167.7C33.9323 168.167 34.5523 168.793 34.9656 169.58C35.3923 170.353 35.6056 171.193 35.6056 172.1C35.6056 173.007 35.3923 173.853 34.9656 174.64C34.5523 175.413 33.9323 176.033 33.1056 176.5C32.2923 176.967 31.3056 177.2 30.1456 177.2ZM30.1456 175.94C31.3456 175.94 32.3056 175.6 33.0256 174.92C33.759 174.24 34.1256 173.3 34.1256 172.1C34.1256 170.9 33.759 169.96 33.0256 169.28C32.3056 168.6 31.3456 168.26 30.1456 168.26C28.9323 168.26 27.959 168.6 27.2256 169.28C26.5056 169.96 26.1456 170.9 26.1456 172.1C26.1456 173.3 26.5056 174.24 27.2256 174.92C27.959 175.6 28.9323 175.94 30.1456 175.94Z"/>
		<path fill="#1E1E1E" d="M44.0916 177.2C43.8649 177.2 43.6849 177.133 43.5516 177C43.4182 176.853 43.3516 176.653 43.3516 176.4V167.36C43.3516 165.947 43.7516 164.833 44.5516 164.02C45.3516 163.207 46.4516 162.8 47.8516 162.8C48.6649 162.8 49.4116 163.013 50.0916 163.44C50.7849 163.853 51.3049 164.407 51.6516 165.1C51.9982 164.393 52.5049 163.833 53.1716 163.42C53.8516 163.007 54.6116 162.8 55.4516 162.8C56.8516 162.8 57.9516 163.207 58.7516 164.02C59.5516 164.82 59.9516 165.933 59.9516 167.36V176.4C59.9516 176.653 59.8782 176.853 59.7316 177C59.5982 177.133 59.4182 177.2 59.1916 177.2C58.9516 177.2 58.7649 177.133 58.6316 177C58.5116 176.853 58.4516 176.653 58.4516 176.4V167.36C58.4516 166.307 58.2116 165.5 57.7316 164.94C57.2649 164.38 56.4916 164.1 55.4116 164.1C54.4649 164.1 53.7249 164.393 53.1916 164.98C52.6582 165.553 52.3916 166.347 52.3916 167.36V176.4C52.3916 176.653 52.3249 176.853 52.1916 177C52.0582 177.133 51.8782 177.2 51.6516 177.2C51.4249 177.2 51.2449 177.133 51.1116 177C50.9916 176.853 50.9316 176.653 50.9316 176.4V167.36C50.9316 166.373 50.6516 165.587 50.0916 165C49.5316 164.4 48.7982 164.1 47.8916 164.1C46.8116 164.1 46.0316 164.38 45.5516 164.94C45.0849 165.5 44.8516 166.307 44.8516 167.36V176.4C44.8516 176.653 44.7849 176.853 44.6516 177C44.5182 177.133 44.3316 177.2 44.0916 177.2Z"/>
		<path fill="#1E1E1E" d="M66.9609 177.2C65.6543 177.2 64.6276 176.827 63.8809 176.08C63.1476 175.333 62.7809 174.293 62.7809 172.96V167.8C62.7809 167.547 62.8476 167.353 62.9809 167.22C63.1143 167.073 63.2943 167 63.5209 167C63.7476 167 63.9209 167.073 64.0409 167.22C64.1743 167.353 64.2409 167.547 64.2409 167.8V172.96C64.2409 173.907 64.4943 174.64 65.0009 175.16C65.5076 175.68 66.2143 175.94 67.1209 175.94C67.8409 175.94 68.4809 175.78 69.0409 175.46C69.6009 175.14 70.0343 174.693 70.3409 174.12C70.6609 173.547 70.8209 172.887 70.8209 172.14V167.8C70.8209 167.547 70.8809 167.353 71.0009 167.22C71.1343 167.073 71.3209 167 71.5609 167C71.7876 167 71.9609 167.073 72.0809 167.22C72.2143 167.353 72.2809 167.547 72.2809 167.8V176.4C72.2809 176.653 72.2143 176.853 72.0809 177C71.9609 177.133 71.7876 177.2 71.5609 177.2C71.3209 177.2 71.1343 177.127 71.0009 176.98C70.8809 176.833 70.8209 176.64 70.8209 176.4V175.22C70.3276 175.86 69.7543 176.353 69.1009 176.7C68.4476 177.033 67.7343 177.2 66.9609 177.2Z"/>
		<path fill="#1E1E1E" d="M81.7675 175.02C81.9142 175.14 81.9875 175.28 81.9875 175.44C81.9875 175.573 81.9275 175.733 81.8075 175.92C81.5275 176.307 81.1408 176.62 80.6475 176.86C80.1542 177.087 79.6475 177.2 79.1275 177.2C78.2475 177.2 77.5542 176.94 77.0475 176.42C76.5408 175.9 76.2875 175.187 76.2875 174.28V168.42H75.2075C74.6742 168.42 74.4075 168.213 74.4075 167.8C74.4075 167.613 74.4742 167.467 74.6075 167.36C74.7542 167.253 74.9542 167.2 75.2075 167.2H76.2875V163.78C76.2875 163.527 76.3475 163.333 76.4675 163.2C76.6008 163.053 76.7875 162.98 77.0275 162.98C77.2542 162.98 77.4275 163.053 77.5475 163.2C77.6808 163.333 77.7475 163.527 77.7475 163.78V167.2H80.4675C80.7075 167.2 80.8942 167.253 81.0275 167.36C81.1742 167.453 81.2475 167.6 81.2475 167.8C81.2475 168.213 80.9875 168.42 80.4675 168.42H77.7475V174.4C77.7475 175.427 78.2275 175.94 79.1875 175.94C79.4942 175.94 79.7742 175.88 80.0275 175.76C80.2808 175.64 80.5342 175.447 80.7875 175.18C80.9875 174.967 81.1808 174.86 81.3675 174.86C81.4875 174.86 81.6208 174.913 81.7675 175.02Z"/>
		<path fill="#1E1E1E" d="M87.7905 177.2C86.4838 177.2 85.4571 176.913 84.7105 176.34C83.9771 175.767 83.6105 174.973 83.6105 173.96C83.6105 172.96 83.9971 172.167 84.7705 171.58C85.5571 170.993 86.6238 170.7 87.9705 170.7C88.7571 170.7 89.4505 170.807 90.0505 171.02C90.6638 171.233 91.1371 171.52 91.4705 171.88V170.6C91.4705 169.84 91.2171 169.26 90.7105 168.86C90.2171 168.46 89.4905 168.26 88.5305 168.26C87.2905 168.26 86.2171 168.553 85.3105 169.14C85.0838 169.273 84.8971 169.34 84.7505 169.34C84.6171 169.34 84.4838 169.287 84.3505 169.18C84.2038 169.06 84.1305 168.907 84.1305 168.72C84.1305 168.52 84.2171 168.353 84.3905 168.22C84.8705 167.847 85.4771 167.553 86.2105 167.34C86.9571 167.113 87.7171 167 88.4905 167C89.9038 167 90.9971 167.32 91.7705 167.96C92.5571 168.6 92.9505 169.5 92.9505 170.66V176.42C92.9505 176.94 92.7105 177.2 92.2305 177.2C92.0171 177.2 91.8438 177.133 91.7105 177C91.5771 176.853 91.5105 176.667 91.5105 176.44V175.72C90.6838 176.707 89.4438 177.2 87.7905 177.2ZM87.9705 175.98C89.0105 175.98 89.8571 175.787 90.5105 175.4C91.1638 175 91.4905 174.487 91.4905 173.86C91.4905 173.233 91.1838 172.753 90.5705 172.42C89.9705 172.073 89.1171 171.9 88.0105 171.9C87.0771 171.9 86.3571 172.08 85.8505 172.44C85.3438 172.787 85.0905 173.293 85.0905 173.96C85.0905 174.613 85.3371 175.113 85.8305 175.46C86.3238 175.807 87.0371 175.98 87.9705 175.98Z"/>
		<path fill="#1E1E1E" d="M102.139 175.02C102.285 175.14 102.359 175.28 102.359 175.44C102.359 175.573 102.299 175.733 102.179 175.92C101.899 176.307 101.512 176.62 101.019 176.86C100.525 177.087 100.019 177.2 99.4986 177.2C98.6186 177.2 97.9253 176.94 97.4186 176.42C96.9119 175.9 96.6586 175.187 96.6586 174.28V168.42H95.5786C95.0453 168.42 94.7786 168.213 94.7786 167.8C94.7786 167.613 94.8453 167.467 94.9786 167.36C95.1253 167.253 95.3253 167.2 95.5786 167.2H96.6586V163.78C96.6586 163.527 96.7186 163.333 96.8386 163.2C96.9719 163.053 97.1586 162.98 97.3986 162.98C97.6253 162.98 97.7986 163.053 97.9186 163.2C98.0519 163.333 98.1186 163.527 98.1186 163.78V167.2H100.839C101.079 167.2 101.265 167.253 101.399 167.36C101.545 167.453 101.619 167.6 101.619 167.8C101.619 168.213 101.359 168.42 100.839 168.42H98.1186V174.4C98.1186 175.427 98.5986 175.94 99.5586 175.94C99.8653 175.94 100.145 175.88 100.399 175.76C100.652 175.64 100.905 175.447 101.159 175.18C101.359 174.967 101.552 174.86 101.739 174.86C101.859 174.86 101.992 174.913 102.139 175.02Z"/>
		<path fill="#1E1E1E" d="M105.582 164.88C105.288 164.88 105.035 164.787 104.822 164.6C104.622 164.4 104.522 164.16 104.522 163.88C104.522 163.6 104.622 163.36 104.822 163.16C105.035 162.96 105.288 162.86 105.582 162.86C105.875 162.86 106.128 162.967 106.342 163.18C106.568 163.38 106.682 163.613 106.682 163.88C106.682 164.147 106.568 164.38 106.342 164.58C106.128 164.78 105.875 164.88 105.582 164.88ZM105.582 177.2C105.355 177.2 105.175 177.133 105.042 177C104.922 176.853 104.862 176.653 104.862 176.4V167.8C104.862 167.547 104.922 167.353 105.042 167.22C105.175 167.073 105.355 167 105.582 167C105.822 167 106.002 167.073 106.122 167.22C106.255 167.353 106.322 167.547 106.322 167.8V176.4C106.322 176.653 106.255 176.853 106.122 177C106.002 177.133 105.822 177.2 105.582 177.2Z"/>
		<path fill="#1E1E1E" d="M114.482 177.2C113.322 177.2 112.328 176.967 111.502 176.5C110.675 176.033 110.048 175.413 109.622 174.64C109.208 173.853 109.002 173.007 109.002 172.1C109.002 171.193 109.208 170.353 109.622 169.58C110.048 168.793 110.675 168.167 111.502 167.7C112.328 167.233 113.322 167 114.482 167C115.642 167 116.628 167.233 117.442 167.7C118.268 168.167 118.888 168.793 119.302 169.58C119.728 170.353 119.942 171.193 119.942 172.1C119.942 173.007 119.728 173.853 119.302 174.64C118.888 175.413 118.268 176.033 117.442 176.5C116.628 176.967 115.642 177.2 114.482 177.2ZM114.482 175.94C115.682 175.94 116.642 175.6 117.362 174.92C118.095 174.24 118.462 173.3 118.462 172.1C118.462 170.9 118.095 169.96 117.362 169.28C116.642 168.6 115.682 168.26 114.482 168.26C113.268 168.26 112.295 168.6 111.562 169.28C110.842 169.96 110.482 170.9 110.482 172.1C110.482 173.3 110.842 174.24 111.562 174.92C112.295 175.6 113.268 175.94 114.482 175.94Z"/>
		<path fill="#1E1E1E" d="M122.683 177.2C122.456 177.2 122.276 177.133 122.143 177C122.023 176.853 121.963 176.653 121.963 176.4V167.8C121.963 167.547 122.023 167.353 122.143 167.22C122.263 167.073 122.443 167 122.683 167C122.91 167 123.083 167.073 123.203 167.22C123.336 167.353 123.403 167.547 123.403 167.8V168.98C123.896 168.327 124.49 167.833 125.183 167.5C125.89 167.167 126.663 167 127.503 167C128.77 167 129.743 167.353 130.423 168.06C131.116 168.767 131.463 169.78 131.463 171.1V176.4C131.463 176.653 131.396 176.853 131.263 177C131.13 177.133 130.95 177.2 130.723 177.2C130.483 177.2 130.303 177.133 130.183 177C130.063 176.853 130.003 176.653 130.003 176.4V171.1C130.003 169.207 129.11 168.26 127.323 168.26C126.15 168.26 125.203 168.607 124.483 169.3C123.776 169.993 123.423 170.913 123.423 172.06V176.4C123.423 176.64 123.356 176.833 123.223 176.98C123.103 177.127 122.923 177.2 122.683 177.2Z"/>
		<path fill="#1E1E1E" d="M145.101 177.2C144.861 177.2 144.674 177.133 144.541 177C144.421 176.853 144.361 176.653 144.361 176.4V164.24H139.781C139.541 164.24 139.348 164.193 139.201 164.1C139.068 163.993 139.001 163.84 139.001 163.64C139.001 163.213 139.261 163 139.781 163H150.461C150.981 163 151.241 163.213 151.241 163.64C151.241 163.827 151.174 163.973 151.041 164.08C150.908 164.187 150.714 164.24 150.461 164.24H145.881V176.4C145.881 176.653 145.808 176.853 145.661 177C145.528 177.133 145.341 177.2 145.101 177.2Z"/>
		<path fill="#1E1E1E" d="M155.534 177.2C153.801 177.2 152.461 176.753 151.514 175.86C150.568 174.967 150.094 173.7 150.094 172.06C150.094 170.487 150.574 169.253 151.534 168.36C152.494 167.453 153.808 167 155.474 167C156.501 167 157.414 167.167 158.214 167.5C159.014 167.82 159.634 168.28 160.074 168.88C160.528 169.467 160.754 170.14 160.754 170.9C160.754 171.46 160.594 171.893 160.274 172.2C159.968 172.507 159.541 172.66 158.994 172.66H151.594C151.594 173.687 151.941 174.493 152.634 175.08C153.328 175.653 154.294 175.94 155.534 175.94C156.294 175.94 156.948 175.86 157.494 175.7C158.041 175.527 158.554 175.253 159.034 174.88C159.288 174.667 159.494 174.56 159.654 174.56C159.774 174.56 159.888 174.613 159.994 174.72C160.181 174.88 160.274 175.047 160.274 175.22C160.274 175.353 160.194 175.5 160.034 175.66C159.488 176.18 158.848 176.567 158.114 176.82C157.381 177.073 156.521 177.2 155.534 177.2ZM158.554 171.48C158.794 171.48 158.974 171.433 159.094 171.34C159.214 171.233 159.274 171.047 159.274 170.78C159.274 170.3 159.114 169.867 158.794 169.48C158.474 169.093 158.021 168.793 157.434 168.58C156.861 168.367 156.208 168.26 155.474 168.26C154.288 168.26 153.348 168.553 152.654 169.14C151.974 169.713 151.634 170.493 151.634 171.48H158.554Z"/>
		<path fill="#1E1E1E" d="M167.277 177.2C166.344 177.2 165.464 177.027 164.637 176.68C163.811 176.32 163.157 175.827 162.677 175.2C162.584 175.067 162.537 174.933 162.537 174.8C162.537 174.667 162.571 174.553 162.637 174.46C162.717 174.353 162.817 174.273 162.937 174.22C163.044 174.18 163.131 174.16 163.197 174.16C163.317 174.16 163.417 174.193 163.497 174.26C163.591 174.313 163.697 174.407 163.817 174.54C164.684 175.46 165.837 175.92 167.277 175.92C167.971 175.92 168.531 175.8 168.957 175.56C169.384 175.32 169.597 174.987 169.597 174.56C169.597 174.253 169.511 174.007 169.337 173.82C169.177 173.62 168.897 173.44 168.497 173.28C168.111 173.107 167.471 172.867 166.577 172.56C165.711 172.267 165.031 171.987 164.537 171.72C164.044 171.453 163.677 171.153 163.437 170.82C163.197 170.473 163.077 170.053 163.077 169.56C163.077 168.787 163.411 168.167 164.077 167.7C164.757 167.233 165.657 167 166.777 167C167.604 167 168.371 167.147 169.077 167.44C169.784 167.72 170.317 168.1 170.677 168.58C170.784 168.727 170.837 168.867 170.837 169C170.837 169.2 170.731 169.36 170.517 169.48C170.384 169.56 170.251 169.6 170.117 169.6C169.891 169.6 169.677 169.5 169.477 169.3C169.131 168.953 168.751 168.7 168.337 168.54C167.924 168.367 167.397 168.28 166.757 168.28C166.051 168.28 165.511 168.393 165.137 168.62C164.764 168.847 164.577 169.167 164.577 169.58C164.577 169.887 164.651 170.133 164.797 170.32C164.957 170.493 165.204 170.653 165.537 170.8C165.884 170.933 166.484 171.14 167.337 171.42C168.297 171.74 169.037 172.047 169.557 172.34C170.091 172.62 170.471 172.933 170.697 173.28C170.937 173.627 171.057 174.053 171.057 174.56C171.057 175.36 170.704 176 169.997 176.48C169.304 176.96 168.397 177.2 167.277 177.2Z"/>
		<path fill="#1E1E1E" d="M180.029 175.02C180.176 175.14 180.249 175.28 180.249 175.44C180.249 175.573 180.189 175.733 180.069 175.92C179.789 176.307 179.403 176.62 178.909 176.86C178.416 177.087 177.909 177.2 177.389 177.2C176.509 177.2 175.816 176.94 175.309 176.42C174.803 175.9 174.549 175.187 174.549 174.28V168.42H173.469C172.936 168.42 172.669 168.213 172.669 167.8C172.669 167.613 172.736 167.467 172.869 167.36C173.016 167.253 173.216 167.2 173.469 167.2H174.549V163.78C174.549 163.527 174.609 163.333 174.729 163.2C174.863 163.053 175.049 162.98 175.289 162.98C175.516 162.98 175.689 163.053 175.809 163.2C175.943 163.333 176.009 163.527 176.009 163.78V167.2H178.729C178.969 167.2 179.156 167.253 179.289 167.36C179.436 167.453 179.509 167.6 179.509 167.8C179.509 168.213 179.249 168.42 178.729 168.42H176.009V174.4C176.009 175.427 176.489 175.94 177.449 175.94C177.756 175.94 178.036 175.88 178.289 175.76C178.543 175.64 178.796 175.447 179.049 175.18C179.249 174.967 179.443 174.86 179.629 174.86C179.749 174.86 179.883 174.913 180.029 175.02Z"/>
		<path fill="#1E1E1E" d="M183.472 164.88C183.179 164.88 182.926 164.787 182.712 164.6C182.512 164.4 182.412 164.16 182.412 163.88C182.412 163.6 182.512 163.36 182.712 163.16C182.926 162.96 183.179 162.86 183.472 162.86C183.766 162.86 184.019 162.967 184.232 163.18C184.459 163.38 184.572 163.613 184.572 163.88C184.572 164.147 184.459 164.38 184.232 164.58C184.019 164.78 183.766 164.88 183.472 164.88ZM183.472 177.2C183.246 177.2 183.066 177.133 182.932 177C182.812 176.853 182.752 176.653 182.752 176.4V167.8C182.752 167.547 182.812 167.353 182.932 167.22C183.066 167.073 183.246 167 183.472 167C183.712 167 183.892 167.073 184.012 167.22C184.146 167.353 184.212 167.547 184.212 167.8V176.4C184.212 176.653 184.146 176.853 184.012 177C183.892 177.133 183.712 177.2 183.472 177.2Z"/>
		<path fill="#1E1E1E" d="M188.132 177.2C187.906 177.2 187.726 177.133 187.592 177C187.472 176.853 187.412 176.653 187.412 176.4V167.8C187.412 167.547 187.472 167.353 187.592 167.22C187.712 167.073 187.892 167 188.132 167C188.359 167 188.532 167.073 188.652 167.22C188.786 167.353 188.852 167.547 188.852 167.8V168.98C189.346 168.327 189.939 167.833 190.632 167.5C191.339 167.167 192.112 167 192.952 167C194.219 167 195.192 167.353 195.872 168.06C196.566 168.767 196.912 169.78 196.912 171.1V176.4C196.912 176.653 196.846 176.853 196.712 177C196.579 177.133 196.399 177.2 196.172 177.2C195.932 177.2 195.752 177.133 195.632 177C195.512 176.853 195.452 176.653 195.452 176.4V171.1C195.452 169.207 194.559 168.26 192.772 168.26C191.599 168.26 190.652 168.607 189.932 169.3C189.226 169.993 188.872 170.913 188.872 172.06V176.4C188.872 176.64 188.806 176.833 188.672 176.98C188.552 177.127 188.372 177.2 188.132 177.2Z"/>
		<path fill="#1E1E1E" d="M204.799 182.02C203.839 182.02 202.972 181.88 202.199 181.6C201.425 181.32 200.799 180.913 200.319 180.38C200.212 180.273 200.159 180.14 200.159 179.98C200.159 179.78 200.265 179.607 200.479 179.46C200.612 179.367 200.739 179.32 200.859 179.32C201.059 179.32 201.259 179.427 201.459 179.64C201.779 179.987 202.205 180.267 202.739 180.48C203.272 180.693 203.912 180.8 204.659 180.8C205.965 180.8 206.965 180.487 207.659 179.86C208.352 179.233 208.699 178.327 208.699 177.14V175.26C208.245 175.86 207.652 176.353 206.919 176.74C206.185 177.113 205.332 177.3 204.359 177.3C202.665 177.3 201.359 176.847 200.439 175.94C199.519 175.033 199.059 173.82 199.059 172.3C199.059 171.273 199.259 170.367 199.659 169.58C200.072 168.78 200.685 168.153 201.499 167.7C202.312 167.233 203.312 167 204.499 167C205.379 167 206.172 167.18 206.879 167.54C207.585 167.9 208.192 168.413 208.699 169.08V167.76C208.699 167.547 208.765 167.367 208.899 167.22C209.045 167.073 209.225 167 209.439 167C209.652 167 209.825 167.073 209.959 167.22C210.092 167.353 210.159 167.533 210.159 167.76V177.14C210.159 178.14 209.932 179.007 209.479 179.74C209.039 180.473 208.412 181.033 207.599 181.42C206.785 181.82 205.852 182.02 204.799 182.02ZM204.499 176C205.219 176 205.892 175.86 206.519 175.58C207.159 175.3 207.679 174.873 208.079 174.3C208.479 173.713 208.679 173 208.679 172.16C208.679 171.413 208.519 170.747 208.199 170.16C207.879 169.573 207.412 169.113 206.799 168.78C206.185 168.433 205.452 168.26 204.599 168.26C203.305 168.26 202.305 168.613 201.599 169.32C200.892 170.013 200.539 171.007 200.539 172.3C200.539 173.447 200.872 174.353 201.539 175.02C202.219 175.673 203.205 176 204.499 176Z"/>
		<path fill="#1E1E1E" d="M26.624 156.96C21.056 156.96 16.288 155.84 12.32 153.6C8.35201 151.36 5.34401 148.384 3.29601 144.672C1.31201 140.896 0.320007 136.832 0.320007 132.48C0.320007 128.128 1.31201 124.096 3.29601 120.384C5.34401 116.608 8.35201 113.6 12.32 111.36C16.288 109.12 21.056 108 26.624 108C32.192 108 36.928 109.12 40.832 111.36C44.8 113.6 47.776 116.608 49.76 120.384C51.808 124.096 52.832 128.128 52.832 132.48C52.832 136.832 51.808 140.896 49.76 144.672C47.776 148.384 44.8 151.36 40.832 153.6C36.928 155.84 32.192 156.96 26.624 156.96ZM26.624 150.912C32.384 150.912 36.992 149.28 40.448 146.016C43.968 142.752 45.728 138.24 45.728 132.48C45.728 126.72 43.968 122.208 40.448 118.944C36.992 115.68 32.384 114.048 26.624 114.048C20.8 114.048 16.128 115.68 12.608 118.944C9.15201 122.208 7.42401 126.72 7.42401 132.48C7.42401 138.24 9.15201 142.752 12.608 146.016C16.128 149.28 20.8 150.912 26.624 150.912Z"/>
		<path fill="#1E1E1E" d="M85.3115 156.96C79.7435 156.96 74.9755 155.84 71.0075 153.6C67.0395 151.36 64.0315 148.384 61.9835 144.672C59.9995 140.896 59.0075 136.832 59.0075 132.48C59.0075 128.128 59.9995 124.096 61.9835 120.384C64.0315 116.608 67.0395 113.6 71.0075 111.36C74.9755 109.12 79.7435 108 85.3115 108C90.8795 108 95.6155 109.12 99.5195 111.36C103.488 113.6 106.464 116.608 108.448 120.384C110.496 124.096 111.52 128.128 111.52 132.48C111.52 136.832 110.496 140.896 108.448 144.672C106.464 148.384 103.488 151.36 99.5195 153.6C95.6155 155.84 90.8795 156.96 85.3115 156.96ZM85.3115 150.912C91.0715 150.912 95.6795 149.28 99.1355 146.016C102.656 142.752 104.416 138.24 104.416 132.48C104.416 126.72 102.656 122.208 99.1355 118.944C95.6795 115.68 91.0715 114.048 85.3115 114.048C79.4875 114.048 74.8155 115.68 71.2955 118.944C67.8395 122.208 66.1115 126.72 66.1115 132.48C66.1115 138.24 67.8395 142.752 71.2955 146.016C74.8155 149.28 79.4875 150.912 85.3115 150.912Z"/>
		<path fill="#1E1E1E" d="M128.374 156C124.598 156 121.718 155.232 119.734 153.696C117.75 152.096 116.758 149.792 116.758 146.784C116.758 144.672 117.27 142.912 118.294 141.504C119.382 140.032 120.95 138.72 122.998 137.568L149.59 123.072C150.998 122.304 151.958 121.6 152.47 120.96C152.982 120.256 153.238 119.424 153.238 118.464C153.238 117.376 152.822 116.544 151.99 115.968C151.158 115.392 149.974 115.104 148.438 115.104H121.75C118.678 115.104 117.142 114.08 117.142 112.032C117.142 109.984 118.678 108.96 121.75 108.96H148.054C151.83 108.96 154.774 109.792 156.886 111.456C158.998 113.056 160.054 115.328 160.054 118.272C160.054 120.576 159.51 122.496 158.422 124.032C157.398 125.504 155.894 126.752 153.91 127.776L127.222 141.984C126.006 142.624 125.046 143.36 124.342 144.192C123.702 145.024 123.382 145.856 123.382 146.688C123.382 147.712 123.766 148.512 124.534 149.088C125.366 149.6 126.486 149.856 127.894 149.856H156.118C159.19 149.856 160.726 150.848 160.726 152.832C160.726 154.944 159.19 156 156.118 156H128.374Z"/>
		<path fill="#1E1E1E" d="M195.271 156.96C186.951 156.96 180.519 154.816 175.975 150.528C171.431 146.24 169.159 140.16 169.159 132.288C169.159 124.736 171.463 118.816 176.071 114.528C180.679 110.176 186.983 108 194.983 108C199.911 108 204.295 108.8 208.135 110.4C211.975 111.936 214.951 114.144 217.063 117.024C219.239 119.84 220.327 123.072 220.327 126.72C220.327 129.408 219.559 131.488 218.023 132.96C216.551 134.432 214.503 135.168 211.879 135.168H176.359C176.359 140.096 178.023 143.968 181.351 146.784C184.679 149.536 189.319 150.912 195.271 150.912C198.919 150.912 202.055 150.528 204.679 149.76C207.303 148.928 209.767 147.616 212.071 145.824C213.287 144.8 214.279 144.288 215.047 144.288C215.623 144.288 216.167 144.544 216.679 145.056C217.575 145.824 218.023 146.624 218.023 147.456C218.023 148.096 217.639 148.8 216.871 149.568C214.247 152.064 211.175 153.92 207.655 155.136C204.135 156.352 200.007 156.96 195.271 156.96ZM209.767 129.504C210.919 129.504 211.783 129.28 212.359 128.832C212.935 128.32 213.223 127.424 213.223 126.144C213.223 123.84 212.455 121.76 210.919 119.904C209.383 118.048 207.207 116.608 204.391 115.584C201.639 114.56 198.503 114.048 194.983 114.048C189.287 114.048 184.775 115.456 181.447 118.272C178.183 121.024 176.551 124.768 176.551 129.504H209.767Z"/>
	</g>
	<defs>
		<linearGradient id="paint0_linear_0_1" x1="29" y1="45.1347" x2="190.648" y2="45.1347" gradientUnits="userSpaceOnUse">
			<stop stop-color="#FFF500">
				<animate attributeName="stop-color" values="#FFF500;#FF0099;#FFF500" dur="10s" repeatCount="indefinite" />
			</stop>
			<stop offset="1" stop-color="#FF0099">
				<animate attributeName="stop-color" values="#FF0099;#FFF500;#FF0099" dur="10s" repeatCount="indefinite" />
			</stop>
		</linearGradient>
	</defs>
</svg>
